<svg width="80" height="80" viewBox="0 0 80 80" fill="none" xmlns="http://www.w3.org/2000/svg">
<path fill-rule="evenodd" clip-rule="evenodd" d="M15.7011 0.817376C16.7909 -0.272459 18.5579 -0.272459 19.6477 0.817376L21.3953 2.56499L23.143 0.817376C24.2328 -0.272459 25.9998 -0.272459 27.0896 0.817376C28.1794 1.90721 28.1794 3.67418 27.0896 4.76402L24.186 7.66757V10.2326C24.186 11.7738 22.9366 13.0233 21.3953 13.0233C19.8541 13.0233 18.6047 11.7738 18.6047 10.2326V7.66757L15.7011 4.76402C14.6113 3.67418 14.6113 1.90721 15.7011 0.817376ZM33.4884 2.7907C33.4884 1.24944 34.7378 7.45058e-09 36.2791 7.45058e-09H43.7209C45.2622 7.45058e-09 46.5116 1.24944 46.5116 2.7907C46.5116 4.33196 45.2622 5.5814 43.7209 5.5814H42.7907V20.4651H43.7209C45.2622 20.4651 46.5116 21.7146 46.5116 23.2558C46.5116 24.7971 45.2622 26.0465 43.7209 26.0465H42.7907V37.2093H53.9535V36.2791C53.9535 34.7378 55.2029 33.4884 56.7442 33.4884C58.2854 33.4884 59.5349 34.7378 59.5349 36.2791V37.2093H74.4186V36.2791C74.4186 34.7378 75.668 33.4884 77.2093 33.4884C78.7506 33.4884 80 34.7378 80 36.2791V43.7209C80 45.2622 78.7506 46.5116 77.2093 46.5116C75.668 46.5116 74.4186 45.2622 74.4186 43.7209V42.7907H59.5349V43.7209C59.5349 45.2622 58.2854 46.5116 56.7442 46.5116C55.2029 46.5116 53.9535 45.2622 53.9535 43.7209V42.7907H42.7907V53.9535H43.7209C45.2622 53.9535 46.5116 55.2029 46.5116 56.7442C46.5116 58.2854 45.2622 59.5349 43.7209 59.5349H42.7907V74.4186H43.7209C45.2622 74.4186 46.5116 75.668 46.5116 77.2093C46.5116 78.7506 45.2622 80 43.7209 80H36.2791C34.7378 80 33.4884 78.7506 33.4884 77.2093C33.4884 75.668 34.7378 74.4186 36.2791 74.4186H37.2093V59.5349H36.2791C34.7378 59.5349 33.4884 58.2854 33.4884 56.7442C33.4884 55.2029 34.7378 53.9535 36.2791 53.9535H37.2093V42.7907H26.0465V43.7209C26.0465 45.2622 24.7971 46.5116 23.2558 46.5116C21.7146 46.5116 20.4651 45.2622 20.4651 43.7209V42.7907H5.5814V43.7209C5.5814 45.2622 4.33196 46.5116 2.7907 46.5116C1.24944 46.5116 0 45.2622 0 43.7209V36.2791C0 34.7378 1.24944 33.4884 2.7907 33.4884C4.33196 33.4884 5.5814 34.7378 5.5814 36.2791V37.2093H20.4651V36.2791C20.4651 34.7378 21.7146 33.4884 23.2558 33.4884C24.7971 33.4884 26.0465 34.7378 26.0465 36.2791V37.2093H37.2093V26.0465H36.2791C34.7378 26.0465 33.4884 24.7971 33.4884 23.2558C33.4884 21.7146 34.7378 20.4651 36.2791 20.4651H37.2093V5.5814H36.2791C34.7378 5.5814 33.4884 4.33196 33.4884 2.7907ZM71.7408 52.9104C70.6509 51.8206 68.884 51.8206 67.7941 52.9104C66.7043 54.0002 66.7043 55.7672 67.7941 56.857L69.5417 58.6046L67.7941 60.3523C66.7043 61.4421 66.7043 63.2091 67.7941 64.2989C68.884 65.3887 70.6509 65.3887 71.7408 64.2989L73.4884 62.5513L75.236 64.2989C76.3258 65.3887 78.0928 65.3887 79.1826 64.2989C80.2725 63.2091 80.2725 61.4421 79.1826 60.3523L77.435 58.6046L79.1826 56.857C80.2725 55.7672 80.2725 54.0002 79.1826 52.9104C78.0928 51.8206 76.3258 51.8206 75.236 52.9104L73.4884 54.658L71.7408 52.9104Z" fill="white"/>
</svg>
