<svg width="25" height="25" viewBox="0 0 25 25" fill="none" xmlns="http://www.w3.org/2000/svg">
<path fill-rule="evenodd" clip-rule="evenodd" d="M9.84839 11.5415H6.38858C5.86399 11.5415 5.45181 11.1078 5.45181 10.5848C5.45181 10.049 5.86399 9.62804 6.38858 9.62804H9.84839C10.373 9.62804 10.7852 10.049 10.7852 10.5848C10.7852 11.1078 10.373 11.5415 9.84839 11.5415ZM2.27928 4.90937C1.51737 4.90937 1.01776 5.17725 0.518152 5.76404C0.0185413 6.35084 -0.0688896 7.19276 0.0435238 7.95686L1.2301 16.325C1.45492 17.9336 2.80387 19.1187 4.39013 19.1187H18.017C19.6782 19.1187 21.0521 17.8188 21.1895 16.135L22.3386 2.22925L24.2247 1.89759C24.7243 1.80829 25.074 1.3108 24.9866 0.800542C24.8992 0.278806 24.412 -0.0668909 23.8999 0.0109229L20.921 0.468876C20.4963 0.54669 20.1841 0.902593 20.1466 1.33631L19.9093 4.19373C19.8718 4.60321 19.5471 4.90937 19.1474 4.90937H2.27928ZM18.2171 21.1349C19.2663 21.1349 20.1157 22.0024 20.1157 23.0739C20.1157 24.1327 19.2663 25.0001 18.2171 25.0001C17.1804 25.0001 16.3311 24.1327 16.3311 23.0739C16.3311 22.0024 17.1804 21.1349 18.2171 21.1349ZM4.16557 21.1349C5.21475 21.1349 6.06409 22.0024 6.06409 23.0739C6.06409 24.1327 5.21475 25.0001 4.16557 25.0001C3.12888 25.0001 2.27954 24.1327 2.27954 23.0739C2.27954 22.0024 3.12888 21.1349 4.16557 21.1349Z" fill="#41444B"/>
</svg>
