<svg width="22" height="22" viewBox="0 0 22 22" fill="none" xmlns="http://www.w3.org/2000/svg">
<path d="M3.5 21C2.6716 21 2 20.3284 2 19.5C2 18.6716 2.6716 18 3.5 18C4.3284 18 5 18.6716 5 19.5C5 20.3284 4.3284 21 3.5 21Z" stroke="#41444B" stroke-width="1.5" stroke-linecap="round" stroke-linejoin="round"/>
<path d="M13.5 21C12.6716 21 12 20.3284 12 19.5C12 18.6716 12.6716 18 13.5 18C14.3284 18 15 18.6716 15 19.5C15 20.3284 14.3284 21 13.5 21Z" stroke="#41444B" stroke-width="1.5" stroke-linecap="round" stroke-linejoin="round"/>
<path d="M18 3H1L3 14H16L18 3ZM18 3C18.1667 2.33333 19 1 21 1" stroke="#41444B" stroke-width="1.5" stroke-linecap="round" stroke-linejoin="round"/>
<path d="M3 14H16H17.7692C19.5535 14 20.5 14.7812 20.5 16C20.5 17.2188 19.5535 18 17.7692 18H3.5" stroke="#41444B" stroke-width="1.5" stroke-linecap="round" stroke-linejoin="round"/>
</svg>
