<svg width="80" height="80" viewBox="0 0 80 80" fill="none" xmlns="http://www.w3.org/2000/svg">
<path fill-rule="evenodd" clip-rule="evenodd" d="M21.3333 0H58.6667C70.4487 0 80 9.55126 80 21.3333V22.883C80 23.4589 79.7671 24.0104 79.3544 24.412L22.8433 79.3957C22.4451 79.7832 21.9104 80 21.3548 80C9.57269 80 0 70.4487 0 58.6667V21.3333C0 9.55126 9.55126 0 21.3333 0ZM41.0667 24.6086L42.0868 23.5655C44.9036 20.685 49.4706 20.685 52.2874 23.5655C55.1043 26.4459 55.1043 31.1161 52.2874 33.9966L45.147 41.2984C42.8935 43.6028 39.2399 43.6028 36.9865 41.2984L29.846 33.9966C27.0292 31.1161 27.0292 26.4459 29.846 23.5655C32.6629 20.685 37.2298 20.685 40.0467 23.5655L41.0667 24.6086Z" fill="#959697"/>
</svg>
