<svg width="284" height="43" viewBox="0 0 284 43" fill="none" xmlns="http://www.w3.org/2000/svg">
<path d="M23.5294 40L21.1765 37.6471L18.8235 40L21.1765 42.3529L23.5294 40Z" fill="#41444B"/>
<path d="M23.5294 40L21.1765 37.6471L18.8235 40L21.1765 42.3529L23.5294 40Z" fill="#41444B"/>
<path d="M21.1765 37.6471L18.8235 35.2941L16.4706 37.6471L18.8235 40L21.1765 37.6471Z" fill="#41444B"/>
<path d="M21.1765 37.6471L18.8235 35.2941L16.4706 37.6471L18.8235 40L21.1765 37.6471Z" fill="#41444B"/>
<path d="M16.4706 32.9412L14.1176 35.2941L16.4706 37.6471L18.8235 35.2941L16.4706 32.9412Z" fill="#41444B"/>
<path d="M16.4706 32.9412L14.1176 35.2941L16.4706 37.6471L18.8235 35.2941L16.4706 32.9412Z" fill="#41444B"/>
<path d="M11.7647 32.9412L14.1176 35.2941L16.4706 32.9412L14.1176 30.5882L11.7647 32.9412Z" fill="#41444B"/>
<path d="M11.7647 32.9412L14.1176 35.2941L16.4706 32.9412L14.1176 30.5882L11.7647 32.9412Z" fill="#41444B"/>
<path d="M11.7647 28.2353L9.41176 30.5882L11.7647 32.9412L14.1176 30.5882L11.7647 28.2353Z" fill="#41444B"/>
<path d="M11.7647 28.2353L9.41176 30.5882L11.7647 32.9412L14.1176 30.5882L11.7647 28.2353Z" fill="#41444B"/>
<path d="M11.7647 28.2353L9.41176 25.8824L7.05882 28.2353L9.41176 30.5882L11.7647 28.2353Z" fill="#41444B"/>
<path d="M11.7647 28.2353L9.41176 25.8824L7.05882 28.2353L9.41176 30.5882L11.7647 28.2353Z" fill="#41444B"/>
<path d="M7.05882 23.5294L4.70588 25.8824L7.05882 28.2353L9.41176 25.8824L7.05882 23.5294Z" fill="#41444B"/>
<path d="M7.05882 23.5294L4.70588 25.8824L7.05882 28.2353L9.41176 25.8824L7.05882 23.5294Z" fill="#41444B"/>
<path d="M4.70588 21.1765L2.35294 23.5294L4.70588 25.8824L7.05882 23.5294L4.70588 21.1765Z" fill="#41444B"/>
<path d="M4.70588 21.1765L2.35294 23.5294L4.70588 25.8824L7.05882 23.5294L4.70588 21.1765Z" fill="#41444B"/>
<path d="M2.35294 18.8235L0 21.1765L2.35294 23.5294L4.70588 21.1765L2.35294 18.8235Z" fill="#41444B"/>
<path d="M2.35294 18.8235L0 21.1765L2.35294 23.5294L4.70588 21.1765L2.35294 18.8235Z" fill="#41444B"/>
<path d="M4.70588 16.4706L2.35294 18.8235L4.70588 21.1765L7.05882 18.8235L4.70588 16.4706Z" fill="#41444B"/>
<path d="M4.70588 16.4706L2.35294 18.8235L4.70588 21.1765L7.05882 18.8235L4.70588 16.4706Z" fill="#41444B"/>
<path d="M7.05882 14.1176L4.70588 16.4706L7.05882 18.8235L9.41176 16.4706L7.05882 14.1176Z" fill="#41444B"/>
<path d="M7.05882 14.1176L4.70588 16.4706L7.05882 18.8235L9.41176 16.4706L7.05882 14.1176Z" fill="#41444B"/>
<path d="M11.7647 14.1176L9.41176 11.7647L7.05882 14.1176L9.41176 16.4706L11.7647 14.1176Z" fill="#41444B"/>
<path d="M11.7647 14.1176L9.41176 11.7647L7.05882 14.1176L9.41176 16.4706L11.7647 14.1176Z" fill="#41444B"/>
<path d="M16.4706 4.70588L18.8235 7.05882L21.1765 4.70588L18.8235 2.35294L16.4706 4.70588Z" fill="#41444B"/>
<path d="M16.4706 4.70588L18.8235 7.05882L21.1765 4.70588L18.8235 2.35294L16.4706 4.70588Z" fill="#41444B"/>
<path d="M21.1765 4.70588L23.5294 2.35294L21.1765 0L18.8235 2.35294L21.1765 4.70588Z" fill="#41444B"/>
<path d="M21.1765 4.70588L23.5294 2.35294L21.1765 0L18.8235 2.35294L21.1765 4.70588Z" fill="#41444B"/>
<path d="M21.1765 4.70588L23.5294 7.05882L25.8823 4.70588L23.5294 2.35294L21.1765 4.70588Z" fill="#41444B"/>
<path d="M21.1765 4.70588L23.5294 7.05882L25.8823 4.70588L23.5294 2.35294L21.1765 4.70588Z" fill="#41444B"/>
<path d="M30.5882 9.41177L28.2353 7.05882L25.8823 9.41177L28.2353 11.7647L30.5882 9.41177Z" fill="#41444B"/>
<path d="M30.5882 9.41177L28.2353 7.05882L25.8823 9.41177L28.2353 11.7647L30.5882 9.41177Z" fill="#41444B"/>
<path d="M23.5294 7.05882L25.8823 9.41177L28.2353 7.05882L25.8823 4.70588L23.5294 7.05882Z" fill="#41444B"/>
<path d="M23.5294 7.05882L25.8823 9.41177L28.2353 7.05882L25.8823 4.70588L23.5294 7.05882Z" fill="#41444B"/>
<path d="M32.9412 11.7647L30.5882 9.41177L28.2353 11.7647L30.5882 14.1176L32.9412 11.7647Z" fill="#41444B"/>
<path d="M32.9412 11.7647L30.5882 9.41177L28.2353 11.7647L30.5882 14.1176L32.9412 11.7647Z" fill="#41444B"/>
<path d="M30.5882 14.1176L32.9412 16.4706L35.2941 14.1176L32.9412 11.7647L30.5882 14.1176Z" fill="#41444B"/>
<path d="M30.5882 14.1176L32.9412 16.4706L35.2941 14.1176L32.9412 11.7647L30.5882 14.1176Z" fill="#41444B"/>
<path d="M32.9412 16.4706L35.2941 18.8235L37.6471 16.4706L35.2941 14.1176L32.9412 16.4706Z" fill="#41444B"/>
<path d="M32.9412 16.4706L35.2941 18.8235L37.6471 16.4706L35.2941 14.1176L32.9412 16.4706Z" fill="#41444B"/>
<path d="M35.2941 18.8235L37.6471 21.1765L40 18.8235L37.6471 16.4706L35.2941 18.8235Z" fill="#41444B"/>
<path d="M35.2941 18.8235L37.6471 21.1765L40 18.8235L37.6471 16.4706L35.2941 18.8235Z" fill="#41444B"/>
<path d="M37.6471 21.1765L40 23.5294L42.3529 21.1765L40 18.8235L37.6471 21.1765Z" fill="#41444B"/>
<path d="M37.6471 21.1765L40 23.5294L42.3529 21.1765L40 18.8235L37.6471 21.1765Z" fill="#41444B"/>
<path d="M35.2941 23.5294L32.9412 25.8824L35.2941 28.2353L37.6471 25.8824L35.2941 23.5294Z" fill="#41444B"/>
<path d="M35.2941 23.5294L32.9412 25.8824L35.2941 28.2353L37.6471 25.8824L35.2941 23.5294Z" fill="#41444B"/>
<path d="M37.6471 21.1765L35.2941 23.5294L37.6471 25.8824L40 23.5294L37.6471 21.1765Z" fill="#41444B"/>
<path d="M37.6471 21.1765L35.2941 23.5294L37.6471 25.8824L40 23.5294L37.6471 21.1765Z" fill="#41444B"/>
<path d="M35.2941 28.2353L32.9412 25.8824L30.5882 28.2353L32.9412 30.5882L35.2941 28.2353Z" fill="#41444B"/>
<path d="M35.2941 28.2353L32.9412 25.8824L30.5882 28.2353L32.9412 30.5882L35.2941 28.2353Z" fill="#41444B"/>
<path d="M28.2353 30.5882L30.5882 32.9412L32.9412 30.5882L30.5882 28.2353L28.2353 30.5882Z" fill="#41444B"/>
<path d="M28.2353 30.5882L30.5882 32.9412L32.9412 30.5882L30.5882 28.2353L28.2353 30.5882Z" fill="#41444B"/>
<path d="M30.5882 32.9412L28.2353 30.5882L25.8823 32.9412L28.2353 35.2941L30.5882 32.9412Z" fill="#41444B"/>
<path d="M30.5882 32.9412L28.2353 30.5882L25.8823 32.9412L28.2353 35.2941L30.5882 32.9412Z" fill="#41444B"/>
<path d="M25.8823 32.9412L23.5294 35.2941L25.8823 37.6471L28.2353 35.2941L25.8823 32.9412Z" fill="#41444B"/>
<path d="M25.8823 32.9412L23.5294 35.2941L25.8823 37.6471L28.2353 35.2941L25.8823 32.9412Z" fill="#41444B"/>
<path d="M25.8823 37.6471L23.5294 35.2941L21.1765 37.6471L23.5294 40L25.8823 37.6471Z" fill="#41444B"/>
<path d="M25.8823 37.6471L23.5294 35.2941L21.1765 37.6471L23.5294 40L25.8823 37.6471Z" fill="#41444B"/>
<path d="M21.1765 18.8235L23.5294 16.4706L21.1765 14.1176L18.8235 16.4706L21.1765 18.8235Z" fill="#41444B"/>
<path d="M21.1765 18.8235L23.5294 16.4706L21.1765 14.1176L18.8235 16.4706L21.1765 18.8235Z" fill="#FDDB3A"/>
<path d="M16.4706 18.8235L18.8235 21.1765L21.1765 18.8235L18.8235 16.4706L16.4706 18.8235Z" fill="#41444B"/>
<path d="M16.4706 18.8235L18.8235 21.1765L21.1765 18.8235L18.8235 16.4706L16.4706 18.8235Z" fill="#FDDB3A"/>
<path d="M18.8235 21.1765L16.4706 18.8235L14.1176 21.1765L16.4706 23.5294L18.8235 21.1765Z" fill="#41444B"/>
<path d="M18.8235 21.1765L16.4706 18.8235L14.1176 21.1765L16.4706 23.5294L18.8235 21.1765Z" fill="#FDDB3A"/>
<path d="M23.5294 25.8824L21.1765 23.5294L18.8235 25.8824L21.1765 28.2353L23.5294 25.8824Z" fill="#41444B"/>
<path d="M23.5294 25.8824L21.1765 23.5294L18.8235 25.8824L21.1765 28.2353L23.5294 25.8824Z" fill="#FDDB3A"/>
<path d="M21.1765 23.5294L18.8235 21.1765L16.4706 23.5294L18.8235 25.8824L21.1765 23.5294Z" fill="#41444B"/>
<path d="M21.1765 23.5294L18.8235 21.1765L16.4706 23.5294L18.8235 25.8824L21.1765 23.5294Z" fill="#FDDB3A"/>
<path d="M23.5294 16.4706L21.1765 18.8235L23.5294 21.1765L25.8823 18.8235L23.5294 16.4706Z" fill="#41444B"/>
<path d="M23.5294 16.4706L21.1765 18.8235L23.5294 21.1765L25.8823 18.8235L23.5294 16.4706Z" fill="#FDDB3A"/>
<path d="M18.8235 7.05882L21.1765 9.41177L23.5294 7.05882L21.1765 4.70588L18.8235 7.05882Z" fill="#41444B"/>
<path d="M18.8235 7.05882L21.1765 9.41177L23.5294 7.05882L21.1765 4.70588L18.8235 7.05882Z" fill="#41444B"/>
<path d="M14.1176 16.4706L11.7647 14.1176L9.41176 16.4706L11.7647 18.8235L14.1176 16.4706Z" fill="#41444B"/>
<path d="M14.1176 16.4706L11.7647 14.1176L9.41176 16.4706L11.7647 18.8235L14.1176 16.4706Z" fill="#41444B"/>
<path d="M9.41176 16.4706L7.05882 18.8235L9.41176 21.1765L11.7647 18.8235L9.41176 16.4706Z" fill="#41444B"/>
<path d="M9.41176 16.4706L7.05882 18.8235L9.41176 21.1765L11.7647 18.8235L9.41176 16.4706Z" fill="#41444B"/>
<path d="M7.05882 18.8235L4.70588 21.1765L7.05882 23.5294L9.41176 21.1765L7.05882 18.8235Z" fill="#41444B"/>
<path d="M7.05882 18.8235L4.70588 21.1765L7.05882 23.5294L9.41176 21.1765L7.05882 18.8235Z" fill="#41444B"/>
<path d="M9.41176 21.1765L7.05882 23.5294L9.41176 25.8824L11.7647 23.5294L9.41176 21.1765Z" fill="#41444B"/>
<path d="M9.41176 21.1765L7.05882 23.5294L9.41176 25.8824L11.7647 23.5294L9.41176 21.1765Z" fill="#41444B"/>
<path d="M14.1176 25.8824L11.7647 23.5294L9.41176 25.8824L11.7647 28.2353L14.1176 25.8824Z" fill="#41444B"/>
<path d="M14.1176 25.8824L11.7647 23.5294L9.41176 25.8824L11.7647 28.2353L14.1176 25.8824Z" fill="#41444B"/>
<path d="M14.1176 25.8824L11.7647 28.2353L14.1176 30.5882L16.4706 28.2353L14.1176 25.8824Z" fill="#41444B"/>
<path d="M14.1176 25.8824L11.7647 28.2353L14.1176 30.5882L16.4706 28.2353L14.1176 25.8824Z" fill="#41444B"/>
<path d="M14.1176 30.5882L16.4706 32.9412L18.8235 30.5882L16.4706 28.2353L14.1176 30.5882Z" fill="#41444B"/>
<path d="M14.1176 30.5882L16.4706 32.9412L18.8235 30.5882L16.4706 28.2353L14.1176 30.5882Z" fill="#41444B"/>
<path d="M18.8235 30.5882L16.4706 32.9412L18.8235 35.2941L21.1765 32.9412L18.8235 30.5882Z" fill="#41444B"/>
<path d="M18.8235 30.5882L16.4706 32.9412L18.8235 35.2941L21.1765 32.9412L18.8235 30.5882Z" fill="#41444B"/>
<path d="M23.5294 35.2941L21.1765 32.9412L18.8235 35.2941L21.1765 37.6471L23.5294 35.2941Z" fill="#41444B"/>
<path d="M23.5294 35.2941L21.1765 32.9412L18.8235 35.2941L21.1765 37.6471L23.5294 35.2941Z" fill="#41444B"/>
<path d="M23.5294 30.5882L21.1765 32.9412L23.5294 35.2941L25.8823 32.9412L23.5294 30.5882Z" fill="#41444B"/>
<path d="M23.5294 30.5882L21.1765 32.9412L23.5294 35.2941L25.8823 32.9412L23.5294 30.5882Z" fill="#41444B"/>
<path d="M28.2353 30.5882L25.8823 28.2353L23.5294 30.5882L25.8823 32.9412L28.2353 30.5882Z" fill="#41444B"/>
<path d="M28.2353 30.5882L25.8823 28.2353L23.5294 30.5882L25.8823 32.9412L28.2353 30.5882Z" fill="#41444B"/>
<path d="M30.5882 23.5294L28.2353 25.8824L30.5882 28.2353L32.9412 25.8824L30.5882 23.5294Z" fill="#41444B"/>
<path d="M30.5882 23.5294L28.2353 25.8824L30.5882 28.2353L32.9412 25.8824L30.5882 23.5294Z" fill="#41444B"/>
<path d="M32.9412 21.1765L35.2941 23.5294L37.6471 21.1765L35.2941 18.8235L32.9412 21.1765Z" fill="#41444B"/>
<path d="M32.9412 21.1765L35.2941 23.5294L37.6471 21.1765L35.2941 18.8235L32.9412 21.1765Z" fill="#41444B"/>
<path d="M35.2941 23.5294L32.9412 21.1765L30.5882 23.5294L32.9412 25.8824L35.2941 23.5294Z" fill="#41444B"/>
<path d="M35.2941 23.5294L32.9412 21.1765L30.5882 23.5294L32.9412 25.8824L35.2941 23.5294Z" fill="#41444B"/>
<path d="M32.9412 21.1765L35.2941 18.8235L32.9412 16.4706L30.5882 18.8235L32.9412 21.1765Z" fill="#41444B"/>
<path d="M32.9412 21.1765L35.2941 18.8235L32.9412 16.4706L30.5882 18.8235L32.9412 21.1765Z" fill="#41444B"/>
<path d="M30.5882 18.8235L32.9412 16.4706L30.5882 14.1176L28.2353 16.4706L30.5882 18.8235Z" fill="#41444B"/>
<path d="M30.5882 18.8235L32.9412 16.4706L30.5882 14.1176L28.2353 16.4706L30.5882 18.8235Z" fill="#41444B"/>
<path d="M28.2353 16.4706L30.5882 14.1176L28.2353 11.7647L25.8823 14.1176L28.2353 16.4706Z" fill="#41444B"/>
<path d="M28.2353 16.4706L30.5882 14.1176L28.2353 11.7647L25.8823 14.1176L28.2353 16.4706Z" fill="#41444B"/>
<path d="M23.5294 11.7647L25.8823 14.1176L28.2353 11.7647L25.8823 9.41177L23.5294 11.7647Z" fill="#41444B"/>
<path d="M23.5294 11.7647L25.8823 14.1176L28.2353 11.7647L25.8823 9.41177L23.5294 11.7647Z" fill="#41444B"/>
<path d="M21.1765 9.41177L23.5294 11.7647L25.8823 9.41177L23.5294 7.05882L21.1765 9.41177Z" fill="#41444B"/>
<path d="M21.1765 9.41177L23.5294 11.7647L25.8823 9.41177L23.5294 7.05882L21.1765 9.41177Z" fill="#41444B"/>
<path d="M18.8235 21.1765L21.1765 23.5294L23.5294 21.1765L21.1765 18.8235L18.8235 21.1765Z" fill="#41444B"/>
<path d="M18.8235 21.1765L21.1765 23.5294L23.5294 21.1765L21.1765 18.8235L18.8235 21.1765Z" fill="#FDDB3A"/>
<path d="M25.8823 28.2353L28.2353 30.5882L30.5882 28.2353L28.2353 25.8824L25.8823 28.2353Z" fill="#41444B"/>
<path d="M25.8823 28.2353L28.2353 30.5882L30.5882 28.2353L28.2353 25.8824L25.8823 28.2353Z" fill="#41444B"/>
<path d="M21.1765 23.5294L23.5294 25.8824L25.8823 23.5294L23.5294 21.1765L21.1765 23.5294Z" fill="#41444B"/>
<path d="M21.1765 23.5294L23.5294 25.8824L25.8823 23.5294L23.5294 21.1765L21.1765 23.5294Z" fill="#FDDB3A"/>
<path d="M25.8823 18.8235L23.5294 21.1765L25.8823 23.5294L28.2353 21.1765L25.8823 18.8235Z" fill="#41444B"/>
<path d="M25.8823 18.8235L23.5294 21.1765L25.8823 23.5294L28.2353 21.1765L25.8823 18.8235Z" fill="#FDDB3A"/>
<path d="M11.7647 14.1176L14.1176 16.4706L16.4706 14.1176L14.1176 11.7647L11.7647 14.1176Z" fill="#41444B"/>
<path d="M11.7647 14.1176L14.1176 16.4706L16.4706 14.1176L14.1176 11.7647L11.7647 14.1176Z" fill="#41444B"/>
<path d="M9.41176 11.7647L11.7647 14.1176L14.1176 11.7647L11.7647 9.41177L9.41176 11.7647Z" fill="#41444B"/>
<path d="M9.41176 11.7647L11.7647 14.1176L14.1176 11.7647L11.7647 9.41177L9.41176 11.7647Z" fill="#41444B"/>
<path d="M54.88 34V11.152H72.96V34H68.128V15.184H59.712V34H54.88ZM94.2118 25.232C94.2118 26.6827 94.0091 27.9733 93.6038 29.104C93.2198 30.2347 92.6544 31.1947 91.9078 31.984C91.1824 32.752 90.2971 33.3387 89.2518 33.744C88.2064 34.128 87.0224 34.32 85.6998 34.32C84.4838 34.32 83.3531 34.128 82.3078 33.744C81.2838 33.3387 80.3984 32.752 79.6518 31.984C78.9051 31.1947 78.3184 30.2347 77.8918 29.104C77.4864 27.9733 77.2838 26.6827 77.2838 25.232C77.2838 23.2907 77.6251 21.6587 78.3078 20.336C78.9904 18.992 79.9718 17.968 81.2518 17.264C82.5318 16.56 84.0464 16.208 85.7958 16.208C87.4384 16.208 88.8891 16.56 90.1478 17.264C91.4064 17.968 92.3984 18.992 93.1238 20.336C93.8491 21.6587 94.2118 23.2907 94.2118 25.232ZM82.1478 25.232C82.1478 26.384 82.2651 27.3547 82.4998 28.144C82.7558 28.912 83.1504 29.4987 83.6838 29.904C84.2171 30.288 84.9104 30.48 85.7638 30.48C86.6171 30.48 87.2998 30.288 87.8118 29.904C88.3451 29.4987 88.7291 28.912 88.9638 28.144C89.2198 27.3547 89.3478 26.384 89.3478 25.232C89.3478 24.08 89.2198 23.12 88.9638 22.352C88.7291 21.584 88.3451 21.008 87.8118 20.624C87.2784 20.24 86.5851 20.048 85.7318 20.048C84.4731 20.048 83.5558 20.4853 82.9798 21.36C82.4251 22.2133 82.1478 23.504 82.1478 25.232ZM113.8 34H109.032V20.112H104.648C104.435 22.672 104.168 24.8587 103.848 26.672C103.55 28.464 103.166 29.9253 102.696 31.056C102.248 32.1867 101.672 33.0187 100.968 33.552C100.264 34.064 99.4003 34.32 98.3763 34.32C97.8216 34.32 97.3203 34.2773 96.8723 34.192C96.4243 34.1067 96.0189 33.9787 95.6562 33.808V30C95.8909 30.0853 96.1363 30.16 96.3923 30.224C96.6483 30.288 96.9149 30.32 97.1923 30.32C97.4909 30.32 97.7683 30.2027 98.0243 29.968C98.3016 29.7333 98.5576 29.3173 98.7923 28.72C99.0483 28.1227 99.2829 27.3013 99.4963 26.256C99.7096 25.2107 99.9016 23.8987 100.072 22.32C100.264 20.72 100.435 18.7893 100.584 16.528H113.8V34ZM123.385 23.44C123.385 23.8027 123.364 24.2507 123.321 24.784C123.3 25.3173 123.268 25.8613 123.225 26.416C123.204 26.9707 123.172 27.4613 123.129 27.888C123.087 28.3147 123.055 28.6133 123.033 28.784L131.097 16.528H136.825V34H132.217V27.024C132.217 26.448 132.239 25.8187 132.281 25.136C132.324 24.432 132.367 23.7813 132.409 23.184C132.473 22.5653 132.516 22.096 132.537 21.776L124.505 34H118.777V16.528H123.385V23.44ZM155.249 10.832V13.648C157.745 13.712 159.729 14.1493 161.201 14.96C162.694 15.7493 163.761 16.7733 164.401 18.032C165.062 19.2907 165.393 20.6667 165.393 22.16C165.393 23.12 165.222 24.1013 164.881 25.104C164.561 26.1067 164.006 27.0347 163.217 27.888C162.449 28.72 161.414 29.4027 160.113 29.936C158.811 30.4693 157.19 30.7573 155.249 30.8V34.32H150.897V30.8C148.934 30.7573 147.291 30.4693 145.969 29.936C144.667 29.4027 143.633 28.7093 142.865 27.856C142.097 27.0027 141.553 26.0853 141.233 25.104C140.913 24.1013 140.753 23.12 140.753 22.16C140.753 21.0507 140.934 19.9947 141.297 18.992C141.659 17.9893 142.235 17.0933 143.025 16.304C143.814 15.5147 144.859 14.8853 146.161 14.416C147.462 13.9467 149.041 13.6907 150.897 13.648V10.832H155.249ZM150.897 17.424C149.51 17.488 148.401 17.7333 147.569 18.16C146.758 18.5653 146.171 19.1093 145.809 19.792C145.467 20.4747 145.297 21.2533 145.297 22.128C145.297 23.088 145.489 23.9307 145.873 24.656C146.278 25.36 146.886 25.9253 147.697 26.352C148.529 26.7573 149.595 26.992 150.897 27.056V17.424ZM155.249 27.056C156.55 26.992 157.606 26.7573 158.417 26.352C159.249 25.9253 159.857 25.36 160.241 24.656C160.646 23.9307 160.849 23.088 160.849 22.128C160.849 21.2533 160.667 20.4747 160.305 19.792C159.963 19.1093 159.377 18.5653 158.545 18.16C157.734 17.7333 156.635 17.488 155.249 17.424V27.056ZM184.988 34H180.22V20.112H175.836C175.622 22.672 175.356 24.8587 175.036 26.672C174.737 28.464 174.353 29.9253 173.884 31.056C173.436 32.1867 172.86 33.0187 172.156 33.552C171.452 34.064 170.588 34.32 169.564 34.32C169.009 34.32 168.508 34.2773 168.06 34.192C167.612 34.1067 167.206 33.9787 166.844 33.808V30C167.078 30.0853 167.324 30.16 167.58 30.224C167.836 30.288 168.102 30.32 168.38 30.32C168.678 30.32 168.956 30.2027 169.212 29.968C169.489 29.7333 169.745 29.3173 169.98 28.72C170.236 28.1227 170.47 27.3013 170.684 26.256C170.897 25.2107 171.089 23.8987 171.26 22.32C171.452 20.72 171.622 18.7893 171.772 16.528H184.988V34ZM205.837 25.232C205.837 26.6827 205.634 27.9733 205.229 29.104C204.845 30.2347 204.279 31.1947 203.533 31.984C202.807 32.752 201.922 33.3387 200.877 33.744C199.831 34.128 198.647 34.32 197.325 34.32C196.109 34.32 194.978 34.128 193.933 33.744C192.909 33.3387 192.023 32.752 191.277 31.984C190.53 31.1947 189.943 30.2347 189.517 29.104C189.111 27.9733 188.909 26.6827 188.909 25.232C188.909 23.2907 189.25 21.6587 189.933 20.336C190.615 18.992 191.597 17.968 192.877 17.264C194.157 16.56 195.671 16.208 197.421 16.208C199.063 16.208 200.514 16.56 201.773 17.264C203.031 17.968 204.023 18.992 204.749 20.336C205.474 21.6587 205.837 23.2907 205.837 25.232ZM193.773 25.232C193.773 26.384 193.89 27.3547 194.125 28.144C194.381 28.912 194.775 29.4987 195.309 29.904C195.842 30.288 196.535 30.48 197.389 30.48C198.242 30.48 198.925 30.288 199.437 29.904C199.97 29.4987 200.354 28.912 200.589 28.144C200.845 27.3547 200.973 26.384 200.973 25.232C200.973 24.08 200.845 23.12 200.589 22.352C200.354 21.584 199.97 21.008 199.437 20.624C198.903 20.24 198.21 20.048 197.357 20.048C196.098 20.048 195.181 20.4853 194.605 21.36C194.05 22.2133 193.773 23.504 193.773 25.232ZM219.505 16.208C221.468 16.208 223.057 16.976 224.273 18.512C225.489 20.0267 226.097 22.2667 226.097 25.232C226.097 27.216 225.809 28.8907 225.233 30.256C224.657 31.6 223.868 32.6133 222.865 33.296C221.863 33.9787 220.7 34.32 219.377 34.32C218.545 34.32 217.82 34.2133 217.201 34C216.604 33.7867 216.092 33.5093 215.665 33.168C215.239 32.8267 214.865 32.464 214.545 32.08H214.289C214.375 32.4853 214.439 32.912 214.481 33.36C214.524 33.7867 214.545 34.2133 214.545 34.64V41.68H209.777V16.528H213.649L214.321 18.8H214.545C214.865 18.3307 215.249 17.904 215.697 17.52C216.145 17.1147 216.679 16.7947 217.297 16.56C217.937 16.3253 218.673 16.208 219.505 16.208ZM217.969 20.016C217.137 20.016 216.476 20.1867 215.985 20.528C215.495 20.8693 215.132 21.392 214.897 22.096C214.684 22.7787 214.567 23.6427 214.545 24.688V25.2C214.545 26.3307 214.652 27.2907 214.865 28.08C215.079 28.848 215.441 29.4347 215.953 29.84C216.465 30.2453 217.159 30.448 218.033 30.448C218.759 30.448 219.356 30.2453 219.825 29.84C220.295 29.4347 220.647 28.8373 220.881 28.048C221.116 27.2587 221.233 26.2987 221.233 25.168C221.233 23.4613 220.967 22.1813 220.433 21.328C219.921 20.4533 219.1 20.016 217.969 20.016ZM239.211 34H234.379V15.184H228.171V11.152H245.419V15.184H239.211V34ZM253.509 16.208C255.13 16.208 256.517 16.5173 257.669 17.136C258.842 17.7547 259.749 18.6507 260.389 19.824C261.029 20.9973 261.349 22.4373 261.349 24.144V26.448H250.085C250.127 27.792 250.522 28.848 251.269 29.616C252.037 30.384 253.093 30.768 254.437 30.768C255.567 30.768 256.591 30.6613 257.509 30.448C258.426 30.2133 259.375 29.8613 260.357 29.392V33.072C259.503 33.4987 258.597 33.808 257.637 34C256.698 34.2133 255.557 34.32 254.213 34.32C252.463 34.32 250.917 34 249.573 33.36C248.229 32.6987 247.173 31.7067 246.405 30.384C245.637 29.0613 245.253 27.3973 245.253 25.392C245.253 23.344 245.594 21.648 246.277 20.304C246.981 18.9387 247.951 17.9147 249.189 17.232C250.426 16.5493 251.866 16.208 253.509 16.208ZM253.541 19.6C252.623 19.6 251.855 19.8987 251.237 20.496C250.639 21.0933 250.287 22.0213 250.181 23.28H256.869C256.869 22.576 256.741 21.9467 256.485 21.392C256.25 20.8373 255.887 20.4 255.397 20.08C254.906 19.76 254.287 19.6 253.541 19.6ZM269.407 22.928C269.407 23.6747 269.588 24.24 269.951 24.624C270.335 25.008 270.857 25.2 271.519 25.2C272.436 25.2 273.289 25.104 274.079 24.912C274.868 24.6987 275.657 24.4213 276.447 24.08V16.528H281.215V34H276.447V27.056C275.7 27.4613 274.847 27.8347 273.887 28.176C272.927 28.496 271.839 28.656 270.623 28.656C268.809 28.656 267.359 28.1867 266.271 27.248C265.183 26.3093 264.639 24.9013 264.639 23.024V16.528H269.407V22.928Z" fill="#41444B"/>
</svg>
