<svg width="285" height="42" viewBox="0 0 285 42" fill="none" xmlns="http://www.w3.org/2000/svg">
<path d="M23.583 39.6667L21.2247 37.3333L18.8664 39.6667L21.2247 42L23.583 39.6667Z" fill="#41444B"/>
<path d="M23.583 39.6667L21.2247 37.3333L18.8664 39.6667L21.2247 42L23.583 39.6667Z" fill="#41444B"/>
<path d="M21.2247 37.3333L18.8664 35L16.5081 37.3333L18.8664 39.6667L21.2247 37.3333Z" fill="#41444B"/>
<path d="M21.2247 37.3333L18.8664 35L16.5081 37.3333L18.8664 39.6667L21.2247 37.3333Z" fill="#41444B"/>
<path d="M16.5081 32.6667L14.1498 35L16.5081 37.3333L18.8664 35L16.5081 32.6667Z" fill="#41444B"/>
<path d="M16.5081 32.6667L14.1498 35L16.5081 37.3333L18.8664 35L16.5081 32.6667Z" fill="#41444B"/>
<path d="M11.7915 32.6667L14.1498 35L16.5081 32.6667L14.1498 30.3333L11.7915 32.6667Z" fill="#41444B"/>
<path d="M11.7915 32.6667L14.1498 35L16.5081 32.6667L14.1498 30.3333L11.7915 32.6667Z" fill="#41444B"/>
<path d="M11.7915 28L9.43318 30.3333L11.7915 32.6667L14.1498 30.3333L11.7915 28Z" fill="#41444B"/>
<path d="M11.7915 28L9.43318 30.3333L11.7915 32.6667L14.1498 30.3333L11.7915 28Z" fill="#41444B"/>
<path d="M11.7915 28L9.43318 25.6667L7.07488 28L9.43318 30.3333L11.7915 28Z" fill="#41444B"/>
<path d="M11.7915 28L9.43318 25.6667L7.07488 28L9.43318 30.3333L11.7915 28Z" fill="#41444B"/>
<path d="M7.07488 23.3333L4.71659 25.6667L7.07488 28L9.43318 25.6667L7.07488 23.3333Z" fill="#41444B"/>
<path d="M7.07488 23.3333L4.71659 25.6667L7.07488 28L9.43318 25.6667L7.07488 23.3333Z" fill="#41444B"/>
<path d="M4.71659 21L2.3583 23.3333L4.71659 25.6667L7.07488 23.3333L4.71659 21Z" fill="#41444B"/>
<path d="M4.71659 21L2.3583 23.3333L4.71659 25.6667L7.07488 23.3333L4.71659 21Z" fill="#41444B"/>
<path d="M2.3583 18.6667L0 21L2.3583 23.3333L4.71659 21L2.3583 18.6667Z" fill="#41444B"/>
<path d="M2.3583 18.6667L0 21L2.3583 23.3333L4.71659 21L2.3583 18.6667Z" fill="#41444B"/>
<path d="M4.71659 16.3333L2.3583 18.6667L4.71659 21L7.07488 18.6667L4.71659 16.3333Z" fill="#41444B"/>
<path d="M4.71659 16.3333L2.3583 18.6667L4.71659 21L7.07488 18.6667L4.71659 16.3333Z" fill="#41444B"/>
<path d="M7.07488 14L4.71659 16.3333L7.07488 18.6667L9.43318 16.3333L7.07488 14Z" fill="#41444B"/>
<path d="M7.07488 14L4.71659 16.3333L7.07488 18.6667L9.43318 16.3333L7.07488 14Z" fill="#41444B"/>
<path d="M11.7915 14L9.43318 11.6667L7.07488 14L9.43318 16.3333L11.7915 14Z" fill="#41444B"/>
<path d="M11.7915 14L9.43318 11.6667L7.07488 14L9.43318 16.3333L11.7915 14Z" fill="#41444B"/>
<path d="M16.5081 4.66667L18.8664 7L21.2247 4.66667L18.8664 2.33333L16.5081 4.66667Z" fill="#41444B"/>
<path d="M16.5081 4.66667L18.8664 7L21.2247 4.66667L18.8664 2.33333L16.5081 4.66667Z" fill="#41444B"/>
<path d="M21.2247 4.66667L23.583 2.33333L21.2247 0L18.8664 2.33333L21.2247 4.66667Z" fill="#41444B"/>
<path d="M21.2247 4.66667L23.583 2.33333L21.2247 0L18.8664 2.33333L21.2247 4.66667Z" fill="#41444B"/>
<path d="M21.2247 4.66667L23.583 7L25.9412 4.66667L23.583 2.33333L21.2247 4.66667Z" fill="#41444B"/>
<path d="M21.2247 4.66667L23.583 7L25.9412 4.66667L23.583 2.33333L21.2247 4.66667Z" fill="#41444B"/>
<path d="M30.6578 9.33333L28.2995 7L25.9412 9.33333L28.2995 11.6667L30.6578 9.33333Z" fill="#41444B"/>
<path d="M30.6578 9.33333L28.2995 7L25.9412 9.33333L28.2995 11.6667L30.6578 9.33333Z" fill="#41444B"/>
<path d="M23.583 7L25.9412 9.33333L28.2995 7L25.9412 4.66667L23.583 7Z" fill="#41444B"/>
<path d="M23.583 7L25.9412 9.33333L28.2995 7L25.9412 4.66667L23.583 7Z" fill="#41444B"/>
<path d="M33.0161 11.6667L30.6578 9.33333L28.2995 11.6667L30.6578 14L33.0161 11.6667Z" fill="#41444B"/>
<path d="M33.0161 11.6667L30.6578 9.33333L28.2995 11.6667L30.6578 14L33.0161 11.6667Z" fill="#41444B"/>
<path d="M30.6578 14L33.0161 16.3333L35.3744 14L33.0161 11.6667L30.6578 14Z" fill="#41444B"/>
<path d="M30.6578 14L33.0161 16.3333L35.3744 14L33.0161 11.6667L30.6578 14Z" fill="#41444B"/>
<path d="M33.0161 16.3333L35.3744 18.6667L37.7327 16.3333L35.3744 14L33.0161 16.3333Z" fill="#41444B"/>
<path d="M33.0161 16.3333L35.3744 18.6667L37.7327 16.3333L35.3744 14L33.0161 16.3333Z" fill="#41444B"/>
<path d="M35.3744 18.6667L37.7327 21L40.091 18.6667L37.7327 16.3333L35.3744 18.6667Z" fill="#41444B"/>
<path d="M35.3744 18.6667L37.7327 21L40.091 18.6667L37.7327 16.3333L35.3744 18.6667Z" fill="#41444B"/>
<path d="M37.7327 21L40.091 23.3333L42.4493 21L40.091 18.6667L37.7327 21Z" fill="#41444B"/>
<path d="M37.7327 21L40.091 23.3333L42.4493 21L40.091 18.6667L37.7327 21Z" fill="#41444B"/>
<path d="M35.3744 23.3333L33.0161 25.6667L35.3744 28L37.7327 25.6667L35.3744 23.3333Z" fill="#41444B"/>
<path d="M35.3744 23.3333L33.0161 25.6667L35.3744 28L37.7327 25.6667L35.3744 23.3333Z" fill="#41444B"/>
<path d="M37.7327 21L35.3744 23.3333L37.7327 25.6667L40.091 23.3333L37.7327 21Z" fill="#41444B"/>
<path d="M37.7327 21L35.3744 23.3333L37.7327 25.6667L40.091 23.3333L37.7327 21Z" fill="#41444B"/>
<path d="M35.3744 28L33.0161 25.6667L30.6578 28L33.0161 30.3333L35.3744 28Z" fill="#41444B"/>
<path d="M35.3744 28L33.0161 25.6667L30.6578 28L33.0161 30.3333L35.3744 28Z" fill="#41444B"/>
<path d="M28.2995 30.3333L30.6578 32.6667L33.0161 30.3333L30.6578 28L28.2995 30.3333Z" fill="#41444B"/>
<path d="M28.2995 30.3333L30.6578 32.6667L33.0161 30.3333L30.6578 28L28.2995 30.3333Z" fill="#41444B"/>
<path d="M30.6578 32.6667L28.2995 30.3333L25.9412 32.6667L28.2995 35L30.6578 32.6667Z" fill="#41444B"/>
<path d="M30.6578 32.6667L28.2995 30.3333L25.9412 32.6667L28.2995 35L30.6578 32.6667Z" fill="#41444B"/>
<path d="M25.9412 32.6667L23.583 35L25.9412 37.3333L28.2995 35L25.9412 32.6667Z" fill="#41444B"/>
<path d="M25.9412 32.6667L23.583 35L25.9412 37.3333L28.2995 35L25.9412 32.6667Z" fill="#41444B"/>
<path d="M25.9412 37.3333L23.583 35L21.2247 37.3333L23.583 39.6667L25.9412 37.3333Z" fill="#41444B"/>
<path d="M25.9412 37.3333L23.583 35L21.2247 37.3333L23.583 39.6667L25.9412 37.3333Z" fill="#41444B"/>
<path d="M21.2247 18.6667L23.583 16.3333L21.2247 14L18.8664 16.3333L21.2247 18.6667Z" fill="#41444B"/>
<path d="M21.2247 18.6667L23.583 16.3333L21.2247 14L18.8664 16.3333L21.2247 18.6667Z" fill="#FDDB3A"/>
<path d="M16.5081 18.6667L18.8664 21L21.2247 18.6667L18.8664 16.3333L16.5081 18.6667Z" fill="#41444B"/>
<path d="M16.5081 18.6667L18.8664 21L21.2247 18.6667L18.8664 16.3333L16.5081 18.6667Z" fill="#FDDB3A"/>
<path d="M18.8664 21L16.5081 18.6667L14.1498 21L16.5081 23.3333L18.8664 21Z" fill="#41444B"/>
<path d="M18.8664 21L16.5081 18.6667L14.1498 21L16.5081 23.3333L18.8664 21Z" fill="#FDDB3A"/>
<path d="M23.583 25.6667L21.2247 23.3333L18.8664 25.6667L21.2247 28L23.583 25.6667Z" fill="#41444B"/>
<path d="M23.583 25.6667L21.2247 23.3333L18.8664 25.6667L21.2247 28L23.583 25.6667Z" fill="#FDDB3A"/>
<path d="M21.2247 23.3333L18.8664 21L16.5081 23.3333L18.8664 25.6667L21.2247 23.3333Z" fill="#41444B"/>
<path d="M21.2247 23.3333L18.8664 21L16.5081 23.3333L18.8664 25.6667L21.2247 23.3333Z" fill="#FDDB3A"/>
<path d="M23.583 16.3333L21.2247 18.6667L23.583 21L25.9412 18.6667L23.583 16.3333Z" fill="#41444B"/>
<path d="M23.583 16.3333L21.2247 18.6667L23.583 21L25.9412 18.6667L23.583 16.3333Z" fill="#FDDB3A"/>
<path d="M18.8664 7L21.2247 9.33333L23.583 7L21.2247 4.66667L18.8664 7Z" fill="#41444B"/>
<path d="M18.8664 7L21.2247 9.33333L23.583 7L21.2247 4.66667L18.8664 7Z" fill="#41444B"/>
<path d="M14.1498 16.3333L11.7915 14L9.43318 16.3333L11.7915 18.6667L14.1498 16.3333Z" fill="#41444B"/>
<path d="M14.1498 16.3333L11.7915 14L9.43318 16.3333L11.7915 18.6667L14.1498 16.3333Z" fill="#41444B"/>
<path d="M9.43318 16.3333L7.07488 18.6667L9.43318 21L11.7915 18.6667L9.43318 16.3333Z" fill="#41444B"/>
<path d="M9.43318 16.3333L7.07488 18.6667L9.43318 21L11.7915 18.6667L9.43318 16.3333Z" fill="#41444B"/>
<path d="M7.07488 18.6667L4.71659 21L7.07488 23.3333L9.43318 21L7.07488 18.6667Z" fill="#41444B"/>
<path d="M7.07488 18.6667L4.71659 21L7.07488 23.3333L9.43318 21L7.07488 18.6667Z" fill="#41444B"/>
<path d="M9.43318 21L7.07488 23.3333L9.43318 25.6667L11.7915 23.3333L9.43318 21Z" fill="#41444B"/>
<path d="M9.43318 21L7.07488 23.3333L9.43318 25.6667L11.7915 23.3333L9.43318 21Z" fill="#41444B"/>
<path d="M14.1498 25.6667L11.7915 23.3333L9.43318 25.6667L11.7915 28L14.1498 25.6667Z" fill="#41444B"/>
<path d="M14.1498 25.6667L11.7915 23.3333L9.43318 25.6667L11.7915 28L14.1498 25.6667Z" fill="#41444B"/>
<path d="M14.1498 25.6667L11.7915 28L14.1498 30.3333L16.5081 28L14.1498 25.6667Z" fill="#41444B"/>
<path d="M14.1498 25.6667L11.7915 28L14.1498 30.3333L16.5081 28L14.1498 25.6667Z" fill="#41444B"/>
<path d="M14.1498 30.3333L16.5081 32.6667L18.8664 30.3333L16.5081 28L14.1498 30.3333Z" fill="#41444B"/>
<path d="M14.1498 30.3333L16.5081 32.6667L18.8664 30.3333L16.5081 28L14.1498 30.3333Z" fill="#41444B"/>
<path d="M18.8664 30.3333L16.5081 32.6667L18.8664 35L21.2247 32.6667L18.8664 30.3333Z" fill="#41444B"/>
<path d="M18.8664 30.3333L16.5081 32.6667L18.8664 35L21.2247 32.6667L18.8664 30.3333Z" fill="#41444B"/>
<path d="M23.583 35L21.2247 32.6667L18.8664 35L21.2247 37.3333L23.583 35Z" fill="#41444B"/>
<path d="M23.583 35L21.2247 32.6667L18.8664 35L21.2247 37.3333L23.583 35Z" fill="#41444B"/>
<path d="M23.583 30.3333L21.2247 32.6667L23.583 35L25.9412 32.6667L23.583 30.3333Z" fill="#41444B"/>
<path d="M23.583 30.3333L21.2247 32.6667L23.583 35L25.9412 32.6667L23.583 30.3333Z" fill="#41444B"/>
<path d="M28.2995 30.3333L25.9412 28L23.583 30.3333L25.9412 32.6667L28.2995 30.3333Z" fill="#41444B"/>
<path d="M28.2995 30.3333L25.9412 28L23.583 30.3333L25.9412 32.6667L28.2995 30.3333Z" fill="#41444B"/>
<path d="M30.6578 23.3333L28.2995 25.6667L30.6578 28L33.0161 25.6667L30.6578 23.3333Z" fill="#41444B"/>
<path d="M30.6578 23.3333L28.2995 25.6667L30.6578 28L33.0161 25.6667L30.6578 23.3333Z" fill="#41444B"/>
<path d="M33.0161 21L35.3744 23.3333L37.7327 21L35.3744 18.6667L33.0161 21Z" fill="#41444B"/>
<path d="M33.0161 21L35.3744 23.3333L37.7327 21L35.3744 18.6667L33.0161 21Z" fill="#41444B"/>
<path d="M35.3744 23.3333L33.0161 21L30.6578 23.3333L33.0161 25.6667L35.3744 23.3333Z" fill="#41444B"/>
<path d="M35.3744 23.3333L33.0161 21L30.6578 23.3333L33.0161 25.6667L35.3744 23.3333Z" fill="#41444B"/>
<path d="M33.0161 21L35.3744 18.6667L33.0161 16.3333L30.6578 18.6667L33.0161 21Z" fill="#41444B"/>
<path d="M33.0161 21L35.3744 18.6667L33.0161 16.3333L30.6578 18.6667L33.0161 21Z" fill="#41444B"/>
<path d="M30.6578 18.6667L33.0161 16.3333L30.6578 14L28.2995 16.3333L30.6578 18.6667Z" fill="#41444B"/>
<path d="M30.6578 18.6667L33.0161 16.3333L30.6578 14L28.2995 16.3333L30.6578 18.6667Z" fill="#41444B"/>
<path d="M28.2995 16.3333L30.6578 14L28.2995 11.6667L25.9412 14L28.2995 16.3333Z" fill="#41444B"/>
<path d="M28.2995 16.3333L30.6578 14L28.2995 11.6667L25.9412 14L28.2995 16.3333Z" fill="#41444B"/>
<path d="M23.583 11.6667L25.9412 14L28.2995 11.6667L25.9412 9.33333L23.583 11.6667Z" fill="#41444B"/>
<path d="M23.583 11.6667L25.9412 14L28.2995 11.6667L25.9412 9.33333L23.583 11.6667Z" fill="#41444B"/>
<path d="M21.2247 9.33333L23.583 11.6667L25.9412 9.33333L23.583 7L21.2247 9.33333Z" fill="#41444B"/>
<path d="M21.2247 9.33333L23.583 11.6667L25.9412 9.33333L23.583 7L21.2247 9.33333Z" fill="#41444B"/>
<path d="M18.8664 21L21.2247 23.3333L23.583 21L21.2247 18.6667L18.8664 21Z" fill="#41444B"/>
<path d="M18.8664 21L21.2247 23.3333L23.583 21L21.2247 18.6667L18.8664 21Z" fill="#FDDB3A"/>
<path d="M25.9412 28L28.2995 30.3333L30.6578 28L28.2995 25.6667L25.9412 28Z" fill="#41444B"/>
<path d="M25.9412 28L28.2995 30.3333L30.6578 28L28.2995 25.6667L25.9412 28Z" fill="#41444B"/>
<path d="M21.2247 23.3333L23.583 25.6667L25.9412 23.3333L23.583 21L21.2247 23.3333Z" fill="#41444B"/>
<path d="M21.2247 23.3333L23.583 25.6667L25.9412 23.3333L23.583 21L21.2247 23.3333Z" fill="#FDDB3A"/>
<path d="M25.9412 18.6667L23.583 21L25.9412 23.3333L28.2995 21L25.9412 18.6667Z" fill="#41444B"/>
<path d="M25.9412 18.6667L23.583 21L25.9412 23.3333L28.2995 21L25.9412 18.6667Z" fill="#FDDB3A"/>
<path d="M11.7915 14L14.1498 16.3333L16.5081 14L14.1498 11.6667L11.7915 14Z" fill="#41444B"/>
<path d="M11.7915 14L14.1498 16.3333L16.5081 14L14.1498 11.6667L11.7915 14Z" fill="#41444B"/>
<path d="M9.43318 11.6667L11.7915 14L14.1498 11.6667L11.7915 9.33333L9.43318 11.6667Z" fill="#41444B"/>
<path d="M9.43318 11.6667L11.7915 14L14.1498 11.6667L11.7915 9.33333L9.43318 11.6667Z" fill="#41444B"/>
<path d="M55.3522 33.8833V11.0353H73.4322V33.8833H68.6002V15.0673H60.1842V33.8833H55.3522ZM94.6839 25.1153C94.6839 26.566 94.4813 27.8566 94.0759 28.9873C93.6919 30.118 93.1266 31.078 92.3799 31.8673C91.6546 32.6353 90.7693 33.222 89.7239 33.6273C88.6786 34.0113 87.4946 34.2033 86.1719 34.2033C84.9559 34.2033 83.8253 34.0113 82.7799 33.6273C81.7559 33.222 80.8706 32.6353 80.1239 31.8673C79.3773 31.078 78.7906 30.118 78.3639 28.9873C77.9586 27.8566 77.7559 26.566 77.7559 25.1153C77.7559 23.174 78.0973 21.542 78.7799 20.2193C79.4626 18.8753 80.4439 17.8513 81.7239 17.1473C83.0039 16.4433 84.5186 16.0913 86.2679 16.0913C87.9106 16.0913 89.3613 16.4433 90.6199 17.1473C91.8786 17.8513 92.8706 18.8753 93.5959 20.2193C94.3213 21.542 94.6839 23.174 94.6839 25.1153ZM82.6199 25.1153C82.6199 26.2673 82.7373 27.238 82.9719 28.0273C83.2279 28.7953 83.6226 29.382 84.1559 29.7873C84.6893 30.1713 85.3826 30.3633 86.2359 30.3633C87.0893 30.3633 87.7719 30.1713 88.2839 29.7873C88.8173 29.382 89.2013 28.7953 89.4359 28.0273C89.6919 27.238 89.8199 26.2673 89.8199 25.1153C89.8199 23.9633 89.6919 23.0033 89.4359 22.2353C89.2013 21.4673 88.8173 20.8913 88.2839 20.5073C87.7506 20.1233 87.0573 19.9313 86.2039 19.9313C84.9453 19.9313 84.0279 20.3686 83.4519 21.2433C82.8973 22.0966 82.6199 23.3873 82.6199 25.1153ZM114.272 33.8833H109.504V19.9953H105.12C104.907 22.5553 104.64 24.742 104.32 26.5553C104.022 28.3473 103.638 29.8086 103.168 30.9393C102.72 32.07 102.144 32.902 101.44 33.4353C100.736 33.9473 99.8724 34.2033 98.8484 34.2033C98.2938 34.2033 97.7924 34.1606 97.3444 34.0753C96.8964 33.99 96.4911 33.862 96.1284 33.6913V29.8833C96.3631 29.9686 96.6084 30.0433 96.8644 30.1073C97.1204 30.1713 97.3871 30.2033 97.6644 30.2033C97.9631 30.2033 98.2404 30.086 98.4964 29.8513C98.7738 29.6166 99.0298 29.2006 99.2644 28.6033C99.5204 28.006 99.7551 27.1846 99.9684 26.1393C100.182 25.094 100.374 23.782 100.544 22.2033C100.736 20.6033 100.907 18.6726 101.056 16.4113H114.272V33.8833ZM123.857 23.3233C123.857 23.686 123.836 24.134 123.793 24.6673C123.772 25.2006 123.74 25.7446 123.697 26.2993C123.676 26.854 123.644 27.3446 123.601 27.7713C123.559 28.198 123.527 28.4966 123.505 28.6673L131.569 16.4113H137.297V33.8833H132.689V26.9073C132.689 26.3313 132.711 25.702 132.753 25.0193C132.796 24.3153 132.839 23.6646 132.881 23.0673C132.945 22.4486 132.988 21.9793 133.009 21.6593L124.977 33.8833H119.249V16.4113H123.857V23.3233ZM155.721 10.7153V13.5313C158.217 13.5953 160.201 14.0326 161.673 14.8433C163.166 15.6326 164.233 16.6566 164.873 17.9153C165.534 19.174 165.865 20.55 165.865 22.0433C165.865 23.0033 165.694 23.9846 165.353 24.9873C165.033 25.99 164.478 26.918 163.689 27.7713C162.921 28.6033 161.886 29.286 160.585 29.8193C159.283 30.3526 157.662 30.6406 155.721 30.6833V34.2033H151.369V30.6833C149.406 30.6406 147.763 30.3526 146.441 29.8193C145.139 29.286 144.105 28.5926 143.337 27.7393C142.569 26.886 142.025 25.9686 141.705 24.9873C141.385 23.9846 141.225 23.0033 141.225 22.0433C141.225 20.934 141.406 19.878 141.769 18.8753C142.131 17.8726 142.707 16.9766 143.497 16.1873C144.286 15.398 145.331 14.7686 146.633 14.2993C147.934 13.83 149.513 13.574 151.369 13.5313V10.7153H155.721ZM151.369 17.3073C149.982 17.3713 148.873 17.6166 148.041 18.0433C147.23 18.4486 146.643 18.9926 146.281 19.6753C145.939 20.358 145.769 21.1366 145.769 22.0113C145.769 22.9713 145.961 23.814 146.345 24.5393C146.75 25.2433 147.358 25.8086 148.169 26.2353C149.001 26.6406 150.067 26.8753 151.369 26.9393V17.3073ZM155.721 26.9393C157.022 26.8753 158.078 26.6406 158.889 26.2353C159.721 25.8086 160.329 25.2433 160.713 24.5393C161.118 23.814 161.321 22.9713 161.321 22.0113C161.321 21.1366 161.139 20.358 160.777 19.6753C160.435 18.9926 159.849 18.4486 159.017 18.0433C158.206 17.6166 157.107 17.3713 155.721 17.3073V26.9393ZM185.46 33.8833H180.692V19.9953H176.308C176.095 22.5553 175.828 24.742 175.508 26.5553C175.209 28.3473 174.825 29.8086 174.356 30.9393C173.908 32.07 173.332 32.902 172.628 33.4353C171.924 33.9473 171.06 34.2033 170.036 34.2033C169.481 34.2033 168.98 34.1606 168.532 34.0753C168.084 33.99 167.679 33.862 167.316 33.6913V29.8833C167.551 29.9686 167.796 30.0433 168.052 30.1073C168.308 30.1713 168.575 30.2033 168.852 30.2033C169.151 30.2033 169.428 30.086 169.684 29.8513C169.961 29.6166 170.217 29.2006 170.452 28.6033C170.708 28.006 170.943 27.1846 171.156 26.1393C171.369 25.094 171.561 23.782 171.732 22.2033C171.924 20.6033 172.095 18.6726 172.244 16.4113H185.46V33.8833ZM206.309 25.1153C206.309 26.566 206.106 27.8566 205.701 28.9873C205.317 30.118 204.752 31.078 204.005 31.8673C203.28 32.6353 202.394 33.222 201.349 33.6273C200.304 34.0113 199.12 34.2033 197.797 34.2033C196.581 34.2033 195.45 34.0113 194.405 33.6273C193.381 33.222 192.496 32.6353 191.749 31.8673C191.002 31.078 190.416 30.118 189.989 28.9873C189.584 27.8566 189.381 26.566 189.381 25.1153C189.381 23.174 189.722 21.542 190.405 20.2193C191.088 18.8753 192.069 17.8513 193.349 17.1473C194.629 16.4433 196.144 16.0913 197.893 16.0913C199.536 16.0913 200.986 16.4433 202.245 17.1473C203.504 17.8513 204.496 18.8753 205.221 20.2193C205.946 21.542 206.309 23.174 206.309 25.1153ZM194.245 25.1153C194.245 26.2673 194.362 27.238 194.597 28.0273C194.853 28.7953 195.248 29.382 195.781 29.7873C196.314 30.1713 197.008 30.3633 197.861 30.3633C198.714 30.3633 199.397 30.1713 199.909 29.7873C200.442 29.382 200.826 28.7953 201.061 28.0273C201.317 27.238 201.445 26.2673 201.445 25.1153C201.445 23.9633 201.317 23.0033 201.061 22.2353C200.826 21.4673 200.442 20.8913 199.909 20.5073C199.376 20.1233 198.682 19.9313 197.829 19.9313C196.57 19.9313 195.653 20.3686 195.077 21.2433C194.522 22.0966 194.245 23.3873 194.245 25.1153ZM219.977 16.0913C221.94 16.0913 223.529 16.8593 224.745 18.3953C225.961 19.91 226.569 22.15 226.569 25.1153C226.569 27.0993 226.281 28.774 225.705 30.1393C225.129 31.4833 224.34 32.4966 223.337 33.1793C222.335 33.862 221.172 34.2033 219.849 34.2033C219.017 34.2033 218.292 34.0966 217.673 33.8833C217.076 33.67 216.564 33.3926 216.137 33.0513C215.711 32.71 215.337 32.3473 215.017 31.9633H214.761C214.847 32.3686 214.911 32.7953 214.953 33.2433C214.996 33.67 215.017 34.0966 215.017 34.5233V41.5633H210.249V16.4113H214.121L214.793 18.6833H215.017C215.337 18.214 215.721 17.7873 216.169 17.4033C216.617 16.998 217.151 16.678 217.769 16.4433C218.409 16.2086 219.145 16.0913 219.977 16.0913ZM218.441 19.8993C217.609 19.8993 216.948 20.07 216.457 20.4113C215.967 20.7526 215.604 21.2753 215.369 21.9793C215.156 22.662 215.039 23.526 215.017 24.5713V25.0833C215.017 26.214 215.124 27.174 215.337 27.9633C215.551 28.7313 215.913 29.318 216.425 29.7233C216.937 30.1286 217.631 30.3313 218.505 30.3313C219.231 30.3313 219.828 30.1286 220.297 29.7233C220.767 29.318 221.119 28.7206 221.353 27.9313C221.588 27.142 221.705 26.182 221.705 25.0513C221.705 23.3446 221.439 22.0646 220.905 21.2113C220.393 20.3366 219.572 19.8993 218.441 19.8993ZM239.683 33.8833H234.851V15.0673H228.643V11.0353H245.891V15.0673H239.683V33.8833ZM253.981 16.0913C255.602 16.0913 256.989 16.4006 258.141 17.0193C259.314 17.638 260.221 18.534 260.861 19.7073C261.501 20.8806 261.821 22.3206 261.821 24.0273V26.3313H250.557C250.599 27.6753 250.994 28.7313 251.741 29.4993C252.509 30.2673 253.565 30.6513 254.909 30.6513C256.039 30.6513 257.063 30.5446 257.981 30.3313C258.898 30.0966 259.847 29.7446 260.829 29.2753V32.9553C259.975 33.382 259.069 33.6913 258.109 33.8833C257.17 34.0966 256.029 34.2033 254.685 34.2033C252.935 34.2033 251.389 33.8833 250.045 33.2433C248.701 32.582 247.645 31.59 246.877 30.2673C246.109 28.9446 245.725 27.2806 245.725 25.2753C245.725 23.2273 246.066 21.5313 246.749 20.1873C247.453 18.822 248.423 17.798 249.661 17.1153C250.898 16.4326 252.338 16.0913 253.981 16.0913ZM254.013 19.4833C253.095 19.4833 252.327 19.782 251.709 20.3793C251.111 20.9766 250.759 21.9046 250.653 23.1633H257.341C257.341 22.4593 257.213 21.83 256.957 21.2753C256.722 20.7206 256.359 20.2833 255.869 19.9633C255.378 19.6433 254.759 19.4833 254.013 19.4833ZM269.879 22.8113C269.879 23.558 270.06 24.1233 270.423 24.5073C270.807 24.8913 271.33 25.0833 271.991 25.0833C272.908 25.0833 273.762 24.9873 274.551 24.7953C275.34 24.582 276.13 24.3046 276.919 23.9633V16.4113H281.687V33.8833H276.919V26.9393C276.172 27.3446 275.319 27.718 274.359 28.0593C273.399 28.3793 272.311 28.5393 271.095 28.5393C269.282 28.5393 267.831 28.07 266.743 27.1313C265.655 26.1926 265.111 24.7846 265.111 22.9073V16.4113H269.879V22.8113Z" fill="#F6F4E6"/>
</svg>
