<svg width="43" height="42" viewBox="0 0 43 42" fill="none" xmlns="http://www.w3.org/2000/svg">
<path d="M23.583 39.6667L21.2247 37.3333L18.8664 39.6667L21.2247 42L23.583 39.6667Z" fill="#41444B"/>
<path d="M23.583 39.6667L21.2247 37.3333L18.8664 39.6667L21.2247 42L23.583 39.6667Z" fill="#41444B"/>
<path d="M21.2247 37.3333L18.8664 35L16.5081 37.3333L18.8664 39.6667L21.2247 37.3333Z" fill="#41444B"/>
<path d="M21.2247 37.3333L18.8664 35L16.5081 37.3333L18.8664 39.6667L21.2247 37.3333Z" fill="#41444B"/>
<path d="M16.5081 32.6667L14.1498 35L16.5081 37.3333L18.8664 35L16.5081 32.6667Z" fill="#41444B"/>
<path d="M16.5081 32.6667L14.1498 35L16.5081 37.3333L18.8664 35L16.5081 32.6667Z" fill="#41444B"/>
<path d="M11.7915 32.6667L14.1498 35L16.5081 32.6667L14.1498 30.3333L11.7915 32.6667Z" fill="#41444B"/>
<path d="M11.7915 32.6667L14.1498 35L16.5081 32.6667L14.1498 30.3333L11.7915 32.6667Z" fill="#41444B"/>
<path d="M11.7915 28L9.43318 30.3333L11.7915 32.6667L14.1498 30.3333L11.7915 28Z" fill="#41444B"/>
<path d="M11.7915 28L9.43318 30.3333L11.7915 32.6667L14.1498 30.3333L11.7915 28Z" fill="#41444B"/>
<path d="M11.7915 28L9.43318 25.6667L7.07488 28L9.43318 30.3333L11.7915 28Z" fill="#41444B"/>
<path d="M11.7915 28L9.43318 25.6667L7.07488 28L9.43318 30.3333L11.7915 28Z" fill="#41444B"/>
<path d="M7.07488 23.3333L4.71659 25.6667L7.07488 28L9.43318 25.6667L7.07488 23.3333Z" fill="#41444B"/>
<path d="M7.07488 23.3333L4.71659 25.6667L7.07488 28L9.43318 25.6667L7.07488 23.3333Z" fill="#41444B"/>
<path d="M4.71659 21L2.3583 23.3333L4.71659 25.6667L7.07488 23.3333L4.71659 21Z" fill="#41444B"/>
<path d="M4.71659 21L2.3583 23.3333L4.71659 25.6667L7.07488 23.3333L4.71659 21Z" fill="#41444B"/>
<path d="M2.3583 18.6667L0 21L2.3583 23.3333L4.71659 21L2.3583 18.6667Z" fill="#41444B"/>
<path d="M2.3583 18.6667L0 21L2.3583 23.3333L4.71659 21L2.3583 18.6667Z" fill="#41444B"/>
<path d="M4.71659 16.3333L2.3583 18.6667L4.71659 21L7.07488 18.6667L4.71659 16.3333Z" fill="#41444B"/>
<path d="M4.71659 16.3333L2.3583 18.6667L4.71659 21L7.07488 18.6667L4.71659 16.3333Z" fill="#41444B"/>
<path d="M7.07488 14L4.71659 16.3333L7.07488 18.6667L9.43318 16.3333L7.07488 14Z" fill="#41444B"/>
<path d="M7.07488 14L4.71659 16.3333L7.07488 18.6667L9.43318 16.3333L7.07488 14Z" fill="#41444B"/>
<path d="M11.7915 14L9.43318 11.6667L7.07488 14L9.43318 16.3333L11.7915 14Z" fill="#41444B"/>
<path d="M11.7915 14L9.43318 11.6667L7.07488 14L9.43318 16.3333L11.7915 14Z" fill="#41444B"/>
<path d="M16.5081 4.66667L18.8664 7L21.2247 4.66667L18.8664 2.33333L16.5081 4.66667Z" fill="#41444B"/>
<path d="M16.5081 4.66667L18.8664 7L21.2247 4.66667L18.8664 2.33333L16.5081 4.66667Z" fill="#41444B"/>
<path d="M21.2247 4.66667L23.583 2.33333L21.2247 0L18.8664 2.33333L21.2247 4.66667Z" fill="#41444B"/>
<path d="M21.2247 4.66667L23.583 2.33333L21.2247 0L18.8664 2.33333L21.2247 4.66667Z" fill="#41444B"/>
<path d="M21.2247 4.66667L23.583 7L25.9412 4.66667L23.583 2.33333L21.2247 4.66667Z" fill="#41444B"/>
<path d="M21.2247 4.66667L23.583 7L25.9412 4.66667L23.583 2.33333L21.2247 4.66667Z" fill="#41444B"/>
<path d="M30.6578 9.33333L28.2995 7L25.9412 9.33333L28.2995 11.6667L30.6578 9.33333Z" fill="#41444B"/>
<path d="M30.6578 9.33333L28.2995 7L25.9412 9.33333L28.2995 11.6667L30.6578 9.33333Z" fill="#41444B"/>
<path d="M23.583 7L25.9412 9.33333L28.2995 7L25.9412 4.66667L23.583 7Z" fill="#41444B"/>
<path d="M23.583 7L25.9412 9.33333L28.2995 7L25.9412 4.66667L23.583 7Z" fill="#41444B"/>
<path d="M33.0161 11.6667L30.6578 9.33333L28.2995 11.6667L30.6578 14L33.0161 11.6667Z" fill="#41444B"/>
<path d="M33.0161 11.6667L30.6578 9.33333L28.2995 11.6667L30.6578 14L33.0161 11.6667Z" fill="#41444B"/>
<path d="M30.6578 14L33.0161 16.3333L35.3744 14L33.0161 11.6667L30.6578 14Z" fill="#41444B"/>
<path d="M30.6578 14L33.0161 16.3333L35.3744 14L33.0161 11.6667L30.6578 14Z" fill="#41444B"/>
<path d="M33.0161 16.3333L35.3744 18.6667L37.7327 16.3333L35.3744 14L33.0161 16.3333Z" fill="#41444B"/>
<path d="M33.0161 16.3333L35.3744 18.6667L37.7327 16.3333L35.3744 14L33.0161 16.3333Z" fill="#41444B"/>
<path d="M35.3744 18.6667L37.7327 21L40.091 18.6667L37.7327 16.3333L35.3744 18.6667Z" fill="#41444B"/>
<path d="M35.3744 18.6667L37.7327 21L40.091 18.6667L37.7327 16.3333L35.3744 18.6667Z" fill="#41444B"/>
<path d="M37.7327 21L40.091 23.3333L42.4493 21L40.091 18.6667L37.7327 21Z" fill="#41444B"/>
<path d="M37.7327 21L40.091 23.3333L42.4493 21L40.091 18.6667L37.7327 21Z" fill="#41444B"/>
<path d="M35.3744 23.3333L33.0161 25.6667L35.3744 28L37.7327 25.6667L35.3744 23.3333Z" fill="#41444B"/>
<path d="M35.3744 23.3333L33.0161 25.6667L35.3744 28L37.7327 25.6667L35.3744 23.3333Z" fill="#41444B"/>
<path d="M37.7327 21L35.3744 23.3333L37.7327 25.6667L40.091 23.3333L37.7327 21Z" fill="#41444B"/>
<path d="M37.7327 21L35.3744 23.3333L37.7327 25.6667L40.091 23.3333L37.7327 21Z" fill="#41444B"/>
<path d="M35.3744 28L33.0161 25.6667L30.6578 28L33.0161 30.3333L35.3744 28Z" fill="#41444B"/>
<path d="M35.3744 28L33.0161 25.6667L30.6578 28L33.0161 30.3333L35.3744 28Z" fill="#41444B"/>
<path d="M28.2995 30.3333L30.6578 32.6667L33.0161 30.3333L30.6578 28L28.2995 30.3333Z" fill="#41444B"/>
<path d="M28.2995 30.3333L30.6578 32.6667L33.0161 30.3333L30.6578 28L28.2995 30.3333Z" fill="#41444B"/>
<path d="M30.6578 32.6667L28.2995 30.3333L25.9412 32.6667L28.2995 35L30.6578 32.6667Z" fill="#41444B"/>
<path d="M30.6578 32.6667L28.2995 30.3333L25.9412 32.6667L28.2995 35L30.6578 32.6667Z" fill="#41444B"/>
<path d="M25.9412 32.6667L23.583 35L25.9412 37.3333L28.2995 35L25.9412 32.6667Z" fill="#41444B"/>
<path d="M25.9412 32.6667L23.583 35L25.9412 37.3333L28.2995 35L25.9412 32.6667Z" fill="#41444B"/>
<path d="M25.9412 37.3333L23.583 35L21.2247 37.3333L23.583 39.6667L25.9412 37.3333Z" fill="#41444B"/>
<path d="M25.9412 37.3333L23.583 35L21.2247 37.3333L23.583 39.6667L25.9412 37.3333Z" fill="#41444B"/>
<path d="M21.2247 18.6667L23.583 16.3333L21.2247 14L18.8664 16.3333L21.2247 18.6667Z" fill="#41444B"/>
<path d="M21.2247 18.6667L23.583 16.3333L21.2247 14L18.8664 16.3333L21.2247 18.6667Z" fill="#FDDB3A"/>
<path d="M16.5081 18.6667L18.8664 21L21.2247 18.6667L18.8664 16.3333L16.5081 18.6667Z" fill="#41444B"/>
<path d="M16.5081 18.6667L18.8664 21L21.2247 18.6667L18.8664 16.3333L16.5081 18.6667Z" fill="#FDDB3A"/>
<path d="M18.8664 21L16.5081 18.6667L14.1498 21L16.5081 23.3333L18.8664 21Z" fill="#41444B"/>
<path d="M18.8664 21L16.5081 18.6667L14.1498 21L16.5081 23.3333L18.8664 21Z" fill="#FDDB3A"/>
<path d="M23.583 25.6667L21.2247 23.3333L18.8664 25.6667L21.2247 28L23.583 25.6667Z" fill="#41444B"/>
<path d="M23.583 25.6667L21.2247 23.3333L18.8664 25.6667L21.2247 28L23.583 25.6667Z" fill="#FDDB3A"/>
<path d="M21.2247 23.3333L18.8664 21L16.5081 23.3333L18.8664 25.6667L21.2247 23.3333Z" fill="#41444B"/>
<path d="M21.2247 23.3333L18.8664 21L16.5081 23.3333L18.8664 25.6667L21.2247 23.3333Z" fill="#FDDB3A"/>
<path d="M23.583 16.3333L21.2247 18.6667L23.583 21L25.9412 18.6667L23.583 16.3333Z" fill="#41444B"/>
<path d="M23.583 16.3333L21.2247 18.6667L23.583 21L25.9412 18.6667L23.583 16.3333Z" fill="#FDDB3A"/>
<path d="M18.8664 7L21.2247 9.33333L23.583 7L21.2247 4.66667L18.8664 7Z" fill="#41444B"/>
<path d="M18.8664 7L21.2247 9.33333L23.583 7L21.2247 4.66667L18.8664 7Z" fill="#41444B"/>
<path d="M14.1498 16.3333L11.7915 14L9.43318 16.3333L11.7915 18.6667L14.1498 16.3333Z" fill="#41444B"/>
<path d="M14.1498 16.3333L11.7915 14L9.43318 16.3333L11.7915 18.6667L14.1498 16.3333Z" fill="#41444B"/>
<path d="M9.43318 16.3333L7.07488 18.6667L9.43318 21L11.7915 18.6667L9.43318 16.3333Z" fill="#41444B"/>
<path d="M9.43318 16.3333L7.07488 18.6667L9.43318 21L11.7915 18.6667L9.43318 16.3333Z" fill="#41444B"/>
<path d="M7.07488 18.6667L4.71659 21L7.07488 23.3333L9.43318 21L7.07488 18.6667Z" fill="#41444B"/>
<path d="M7.07488 18.6667L4.71659 21L7.07488 23.3333L9.43318 21L7.07488 18.6667Z" fill="#41444B"/>
<path d="M9.43318 21L7.07488 23.3333L9.43318 25.6667L11.7915 23.3333L9.43318 21Z" fill="#41444B"/>
<path d="M9.43318 21L7.07488 23.3333L9.43318 25.6667L11.7915 23.3333L9.43318 21Z" fill="#41444B"/>
<path d="M14.1498 25.6667L11.7915 23.3333L9.43318 25.6667L11.7915 28L14.1498 25.6667Z" fill="#41444B"/>
<path d="M14.1498 25.6667L11.7915 23.3333L9.43318 25.6667L11.7915 28L14.1498 25.6667Z" fill="#41444B"/>
<path d="M14.1498 25.6667L11.7915 28L14.1498 30.3333L16.5081 28L14.1498 25.6667Z" fill="#41444B"/>
<path d="M14.1498 25.6667L11.7915 28L14.1498 30.3333L16.5081 28L14.1498 25.6667Z" fill="#41444B"/>
<path d="M14.1498 30.3333L16.5081 32.6667L18.8664 30.3333L16.5081 28L14.1498 30.3333Z" fill="#41444B"/>
<path d="M14.1498 30.3333L16.5081 32.6667L18.8664 30.3333L16.5081 28L14.1498 30.3333Z" fill="#41444B"/>
<path d="M18.8664 30.3333L16.5081 32.6667L18.8664 35L21.2247 32.6667L18.8664 30.3333Z" fill="#41444B"/>
<path d="M18.8664 30.3333L16.5081 32.6667L18.8664 35L21.2247 32.6667L18.8664 30.3333Z" fill="#41444B"/>
<path d="M23.583 35L21.2247 32.6667L18.8664 35L21.2247 37.3333L23.583 35Z" fill="#41444B"/>
<path d="M23.583 35L21.2247 32.6667L18.8664 35L21.2247 37.3333L23.583 35Z" fill="#41444B"/>
<path d="M23.583 30.3333L21.2247 32.6667L23.583 35L25.9412 32.6667L23.583 30.3333Z" fill="#41444B"/>
<path d="M23.583 30.3333L21.2247 32.6667L23.583 35L25.9412 32.6667L23.583 30.3333Z" fill="#41444B"/>
<path d="M28.2995 30.3333L25.9412 28L23.583 30.3333L25.9412 32.6667L28.2995 30.3333Z" fill="#41444B"/>
<path d="M28.2995 30.3333L25.9412 28L23.583 30.3333L25.9412 32.6667L28.2995 30.3333Z" fill="#41444B"/>
<path d="M30.6578 23.3333L28.2995 25.6667L30.6578 28L33.0161 25.6667L30.6578 23.3333Z" fill="#41444B"/>
<path d="M30.6578 23.3333L28.2995 25.6667L30.6578 28L33.0161 25.6667L30.6578 23.3333Z" fill="#41444B"/>
<path d="M33.0161 21L35.3744 23.3333L37.7327 21L35.3744 18.6667L33.0161 21Z" fill="#41444B"/>
<path d="M33.0161 21L35.3744 23.3333L37.7327 21L35.3744 18.6667L33.0161 21Z" fill="#41444B"/>
<path d="M35.3744 23.3333L33.0161 21L30.6578 23.3333L33.0161 25.6667L35.3744 23.3333Z" fill="#41444B"/>
<path d="M35.3744 23.3333L33.0161 21L30.6578 23.3333L33.0161 25.6667L35.3744 23.3333Z" fill="#41444B"/>
<path d="M33.0161 21L35.3744 18.6667L33.0161 16.3333L30.6578 18.6667L33.0161 21Z" fill="#41444B"/>
<path d="M33.0161 21L35.3744 18.6667L33.0161 16.3333L30.6578 18.6667L33.0161 21Z" fill="#41444B"/>
<path d="M30.6578 18.6667L33.0161 16.3333L30.6578 14L28.2995 16.3333L30.6578 18.6667Z" fill="#41444B"/>
<path d="M30.6578 18.6667L33.0161 16.3333L30.6578 14L28.2995 16.3333L30.6578 18.6667Z" fill="#41444B"/>
<path d="M28.2995 16.3333L30.6578 14L28.2995 11.6667L25.9412 14L28.2995 16.3333Z" fill="#41444B"/>
<path d="M28.2995 16.3333L30.6578 14L28.2995 11.6667L25.9412 14L28.2995 16.3333Z" fill="#41444B"/>
<path d="M23.583 11.6667L25.9412 14L28.2995 11.6667L25.9412 9.33333L23.583 11.6667Z" fill="#41444B"/>
<path d="M23.583 11.6667L25.9412 14L28.2995 11.6667L25.9412 9.33333L23.583 11.6667Z" fill="#41444B"/>
<path d="M21.2247 9.33333L23.583 11.6667L25.9412 9.33333L23.583 7L21.2247 9.33333Z" fill="#41444B"/>
<path d="M21.2247 9.33333L23.583 11.6667L25.9412 9.33333L23.583 7L21.2247 9.33333Z" fill="#41444B"/>
<path d="M18.8664 21L21.2247 23.3333L23.583 21L21.2247 18.6667L18.8664 21Z" fill="#41444B"/>
<path d="M18.8664 21L21.2247 23.3333L23.583 21L21.2247 18.6667L18.8664 21Z" fill="#FDDB3A"/>
<path d="M25.9412 28L28.2995 30.3333L30.6578 28L28.2995 25.6667L25.9412 28Z" fill="#41444B"/>
<path d="M25.9412 28L28.2995 30.3333L30.6578 28L28.2995 25.6667L25.9412 28Z" fill="#41444B"/>
<path d="M21.2247 23.3333L23.583 25.6667L25.9412 23.3333L23.583 21L21.2247 23.3333Z" fill="#41444B"/>
<path d="M21.2247 23.3333L23.583 25.6667L25.9412 23.3333L23.583 21L21.2247 23.3333Z" fill="#FDDB3A"/>
<path d="M25.9412 18.6667L23.583 21L25.9412 23.3333L28.2995 21L25.9412 18.6667Z" fill="#41444B"/>
<path d="M25.9412 18.6667L23.583 21L25.9412 23.3333L28.2995 21L25.9412 18.6667Z" fill="#FDDB3A"/>
<path d="M11.7915 14L14.1498 16.3333L16.5081 14L14.1498 11.6667L11.7915 14Z" fill="#41444B"/>
<path d="M11.7915 14L14.1498 16.3333L16.5081 14L14.1498 11.6667L11.7915 14Z" fill="#41444B"/>
<path d="M9.43318 11.6667L11.7915 14L14.1498 11.6667L11.7915 9.33333L9.43318 11.6667Z" fill="#41444B"/>
<path d="M9.43318 11.6667L11.7915 14L14.1498 11.6667L11.7915 9.33333L9.43318 11.6667Z" fill="#41444B"/>
</svg>
