<svg width="22" height="22" viewBox="0 0 22 22" fill="none" xmlns="http://www.w3.org/2000/svg">
<path d="M6 16.9999V15.9999C6 13.2385 8.23858 10.9999 11 10.9999C13.7614 10.9999 16 13.2385 16 15.9999V16.9999" stroke="#52575D" stroke-width="1.5" stroke-linecap="round"/>
<path d="M11 11.0001C12.6569 11.0001 14 9.65696 14 8.00006C14 6.34321 12.6569 5.00006 11 5.00006C9.3431 5.00006 8 6.34321 8 8.00006C8 9.65696 9.3431 11.0001 11 11.0001Z" stroke="#52575D" stroke-width="1.5" stroke-linecap="round" stroke-linejoin="round"/>
<path d="M11 20.9999C16.5228 20.9999 21 16.5228 21 10.9999C21 5.47709 16.5228 0.999939 11 0.999939C5.47715 0.999939 1 5.47709 1 10.9999C1 16.5228 5.47715 20.9999 11 20.9999Z" stroke="#52575D" stroke-width="1.5"/>
</svg>
