<svg width="80" height="80" viewBox="0 0 80 80" fill="none" xmlns="http://www.w3.org/2000/svg">
<path fill-rule="evenodd" clip-rule="evenodd" d="M40 80C62.0914 80 80 62.0914 80 40C80 17.9086 62.0914 0 40 0C17.9086 0 0 17.9086 0 40C0 62.0914 17.9086 80 40 80ZM46.7158 28.4024L43.9344 22.5428C42.325 19.1524 37.675 19.1524 36.0656 22.5428L33.2842 28.4024C32.6451 29.7487 31.4098 30.6819 29.9807 30.8978L23.7613 31.8374C20.1627 32.3811 18.7257 36.9791 21.3298 39.6182L25.8302 44.1792C26.8642 45.2272 27.3361 46.7371 27.092 48.2168L26.0296 54.6571C25.4148 58.3835 29.1768 61.2253 32.3955 59.4659L37.9583 56.4252C39.2365 55.7266 40.7635 55.7266 42.0417 56.4252L47.6045 59.4659C50.8232 61.2253 54.5852 58.3835 53.9704 54.6571L52.908 48.2168C52.6639 46.7371 53.1358 45.2272 54.1698 44.1792L58.6703 39.6182C61.2743 36.9791 59.8373 32.3811 56.2387 31.8374L50.0193 30.8978C48.5902 30.6819 47.3549 29.7487 46.7158 28.4024Z" fill="#959697"/>
</svg>
