<svg width="26" height="26" viewBox="0 0 26 26" fill="none" xmlns="http://www.w3.org/2000/svg">
<path fill-rule="evenodd" clip-rule="evenodd" d="M10.1566 3.40502C10.5374 2.83382 11.1785 2.49072 11.865 2.49072H13.7737C14.4602 2.49072 15.1013 2.83382 15.4821 3.40502L16.4125 4.8006H20.2623C20.6875 4.8006 21.0322 5.14532 21.0322 5.57056C21.0322 5.99579 20.6875 6.34052 20.2623 6.34052H5.3764C4.95117 6.34052 4.60645 5.99579 4.60645 5.57056C4.60645 5.14532 4.95117 4.8006 5.3764 4.8006H9.2262L10.1566 3.40502ZM15.8992 23.0229H9.7395C7.47158 23.0229 5.63306 21.1844 5.63306 18.9165V7.62378H20.0056V18.9165C20.0056 21.1844 18.1671 23.0229 15.8992 23.0229ZM10.7661 10.9603C11.1913 10.9603 11.5361 11.305 11.5361 11.7302V18.9165C11.5361 19.3417 11.1913 19.6865 10.7661 19.6865C10.3409 19.6865 9.99616 19.3417 9.99616 18.9165L9.99615 11.7302C9.99615 11.305 10.3409 10.9603 10.7661 10.9603ZM14.8726 10.9603C15.2978 10.9603 15.6425 11.305 15.6425 11.7302V18.9165C15.6425 19.3417 15.2978 19.6865 14.8726 19.6865C14.4473 19.6865 14.1026 19.3417 14.1026 18.9165V11.7302C14.1026 11.305 14.4473 10.9603 14.8726 10.9603Z" fill="#41444B"/>
</svg>
