<svg width="20" height="20" viewBox="0 0 20 20" fill="none" xmlns="http://www.w3.org/2000/svg">
<path d="M10 0C4.4823 0 0 4.4823 0 10C0 15.5177 4.4823 20 10 20C15.5177 20 20 15.5177 20 10C20 4.4823 15.5177 0 10 0ZM10 0.869565C15.0477 0.869565 19.1304 4.95225 19.1304 10C19.1304 15.0477 15.0477 19.1304 10 19.1304C4.95225 19.1304 0.869565 15.0477 0.869565 10C0.869565 4.95225 4.95225 0.869565 10 0.869565ZM5.65302 6.95652L3.89861 6.95737C3.89861 6.95737 3.79822 6.95171 3.67697 6.96756C3.55572 6.98341 3.37661 6.99077 3.19293 7.19854L3.19209 7.19939L3.19124 7.20024C3.02786 7.38707 3.03409 7.60453 3.05452 7.72418C3.07487 7.8434 3.12075 7.93308 3.12075 7.93308V7.93393C3.13762 7.97532 4.41147 11.0965 6.01732 12.7734C7.15004 13.9571 8.36148 14.3478 9.44039 14.3478H10C10.1841 14.3478 10.3485 14.3394 10.5307 14.2451C10.7129 14.1507 10.8696 13.8902 10.8696 13.688C10.8696 13.4701 10.8749 13.2589 10.9027 13.1411C10.9286 13.0312 10.9186 13.0582 10.929 13.0579C10.9394 13.0602 10.9584 13.0646 10.9944 13.0808C11.072 13.1159 11.1918 13.1942 11.3247 13.2974C11.5902 13.5035 11.9046 13.8024 12.2571 14.0336C12.7621 14.3683 13.3101 14.3478 13.3101 14.3478H15.1172L15.1367 14.3461C15.1367 14.3461 15.414 14.3398 15.6989 14.1653C15.8413 14.078 16.0106 13.9178 16.0674 13.6778C16.1243 13.4378 16.0517 13.186 15.912 12.9645C15.861 12.8833 15.6133 12.5243 14.6247 11.6466C14.3692 11.42 14.1951 11.2597 14.1262 11.1744C14.1017 11.1442 14.0997 11.1471 14.0948 11.1455C14.1005 11.1307 14.1577 11.0104 14.3105 10.8118C14.4697 10.6049 14.7117 10.3165 15.0229 9.92018C15.4196 9.41488 15.6978 8.929 15.873 8.51902C15.9605 8.31403 16.0226 8.12802 16.0598 7.95941C16.097 7.79079 16.1267 7.65064 16.0717 7.45075C16.0307 7.30195 15.9193 7.16868 15.8101 7.09834C15.701 7.02799 15.5992 7.00149 15.5078 6.98454C15.3251 6.95065 15.1639 6.95652 15.0136 6.95652C14.6989 6.95652 13.2999 6.96756 13.1844 6.96756C13.0489 6.96756 12.8327 7.024 12.7327 7.08135C12.4843 7.22359 12.4066 7.41848 12.4066 7.41848L12.3828 7.46009L12.3692 7.50679C12.3692 7.50679 12.0507 8.53732 11.723 9.06844H11.7221C11.3368 9.69415 11.0494 9.94234 10.9231 10.0127C10.9096 10.0202 10.9171 10.0162 10.9078 10.0212C10.8979 9.99244 10.8854 9.9528 10.8772 9.87942C10.8587 9.7141 10.8696 9.48129 10.8696 9.25611C10.8696 8.63245 10.9164 8.24356 10.8645 7.87534C10.8385 7.69123 10.7724 7.4862 10.6216 7.32846C10.4708 7.17073 10.276 7.09309 10.0815 7.04823H10.0807C9.87796 7.00155 9.65951 6.96146 9.13468 6.95652C8.46598 6.95029 8.03049 6.97102 7.64351 7.14334L7.63927 7.14589L7.63587 7.14759C7.48297 7.21941 7.36243 7.30173 7.25628 7.41168C7.20321 7.46666 7.14024 7.50669 7.09664 7.68173C7.07483 7.76924 7.07244 7.93482 7.17137 8.06895C7.27029 8.20308 7.40892 8.24354 7.49066 8.25408C7.47558 8.25212 7.55496 8.26959 7.61634 8.29993C7.67771 8.33028 7.731 8.37397 7.74457 8.39164V8.39249C7.73889 8.38512 7.79783 8.53158 7.81335 8.66508C7.82887 8.79858 7.82609 8.90625 7.82609 8.90625L7.82524 8.93257L7.82779 8.9589C7.82779 8.9589 7.85448 9.25432 7.84052 9.55927C7.83354 9.71175 7.81427 9.86522 7.78872 9.95924C7.78737 9.96421 7.78675 9.96247 7.78533 9.96688C7.67647 9.89086 7.42546 9.62595 7.07965 9.05486C6.75999 8.52657 6.4606 7.57643 6.4606 7.57643L6.4538 7.5552L6.44616 7.53482C6.44616 7.53482 6.39034 7.32256 6.14385 7.14929C5.91282 6.98665 5.69293 6.96416 5.69293 6.96416L5.65302 6.95652ZM5.55197 7.82609C5.57684 7.83518 5.62883 7.85391 5.63859 7.85836L5.6284 7.82779L5.64198 7.8592L5.64368 7.86005V7.8609H5.64453C5.62268 7.84562 5.6412 7.86079 5.64368 7.8643C5.65569 7.90527 5.92117 8.81975 6.33577 9.50492C6.71345 10.1287 6.99249 10.4781 7.29704 10.687C7.60131 10.8957 8.01045 10.8742 8.21841 10.766C8.49634 10.6216 8.57403 10.3844 8.62772 10.1868C8.68141 9.98923 8.70056 9.78877 8.70924 9.59918C8.72579 9.23745 8.69748 8.94154 8.6948 8.91219C8.69524 8.89585 8.69911 8.75452 8.67697 8.56403C8.65465 8.37208 8.61465 8.13354 8.44429 7.89402C8.63511 7.86567 8.74106 7.8225 9.12619 7.82609C9.61734 7.83071 9.69205 7.8512 9.88536 7.89572C9.99064 7.92 10.0023 7.94011 9.99236 7.92969C9.98239 7.91926 9.99149 7.9123 10.0034 7.99677C10.0272 8.16569 10 8.5989 10 9.25611C10 9.44137 9.98211 9.70263 10.0127 9.97622C10.0433 10.2496 10.1288 10.5995 10.4594 10.8042C10.6478 10.9208 11.0076 10.9609 11.3468 10.7719C11.686 10.583 12.034 10.2205 12.4626 9.52446C12.886 8.83818 13.1392 7.93589 13.1666 7.84052C13.1666 7.84052 13.1714 7.83738 13.1743 7.83543C13.1819 7.8358 13.1722 7.83713 13.1844 7.83713C13.3455 7.83713 14.7196 7.82609 15.0136 7.82609C15.0945 7.82609 15.13 7.83044 15.1902 7.83288C15.1659 7.92675 15.1331 8.03606 15.073 8.1768C14.9317 8.50758 14.6892 8.93662 14.3385 9.38349C14.0362 9.76848 13.8014 10.0477 13.6218 10.2811C13.4422 10.5144 13.3011 10.6985 13.2422 10.9647C13.1833 11.2308 13.2957 11.531 13.4494 11.7213C13.6031 11.9116 13.7933 12.0718 14.0472 12.297C15.0038 13.1463 15.1607 13.4033 15.1758 13.4273V13.4282C15.1919 13.4538 15.1815 13.428 15.1877 13.4409C15.1334 13.4578 15.0689 13.4769 15.0628 13.4783H13.3033H13.3008C13.3008 13.4783 12.9772 13.4677 12.7369 13.3084L12.7361 13.3076H12.7352C12.4811 13.1411 12.1739 12.8556 11.858 12.6104C11.7001 12.4878 11.5393 12.3729 11.3528 12.2886C11.1662 12.2042 10.9298 12.1444 10.681 12.2189C10.3209 12.3267 10.1211 12.6694 10.0569 12.9416C10.0108 13.1369 10.0176 13.3068 10.0161 13.4774C10.0037 13.4781 10.0145 13.4783 10 13.4783H9.44039C8.55669 13.4783 7.63735 13.2085 6.64572 12.1722C5.35651 10.8259 4.20629 8.22244 4.03363 7.82694L5.55197 7.82609ZM13.136 7.82948C13.1281 7.83124 13.1507 7.83295 13.1692 7.83458C13.1667 7.83593 13.1694 7.83338 13.1658 7.83543C13.1654 7.82816 13.1466 7.82712 13.136 7.82948Z" fill="black"/>
</svg>
